<?xml version="1.0" encoding="UTF-8" standalone="no"?>
<!-- Created with Inkscape (http://www.inkscape.org/) -->

<svg
   xmlns:dc="http://purl.org/dc/elements/1.1/"
   xmlns:cc="http://creativecommons.org/ns#"
   xmlns:rdf="http://www.w3.org/1999/02/22-rdf-syntax-ns#"
   xmlns:svg="http://www.w3.org/2000/svg"
   xmlns="http://www.w3.org/2000/svg"
   xmlns:sodipodi="http://sodipodi.sourceforge.net/DTD/sodipodi-0.dtd"
   xmlns:inkscape="http://www.inkscape.org/namespaces/inkscape"
   width="440"
   height="280"
   viewBox="0 0 116.41667 74.083335"
   version="1.1"
   id="svg7527"
   sodipodi:docname="small_promo_title.svg"
   inkscape:export-filename="/Users/ahenry/src/magic-card-zoom/src/img/small_promo_title.png"
   inkscape:export-xdpi="96"
   inkscape:export-ydpi="96"
   inkscape:version="0.92.2 5c3e80d, 2017-08-06">
  <defs
     id="defs7521" />
  <sodipodi:namedview
     id="base"
     pagecolor="#ffffff"
     bordercolor="#666666"
     borderopacity="1.0"
     inkscape:pageopacity="1"
     inkscape:pageshadow="2"
     inkscape:zoom="1.4"
     inkscape:cx="179.25953"
     inkscape:cy="124.36582"
     inkscape:document-units="px"
     inkscape:current-layer="layer1"
     showgrid="true"
     inkscape:window-width="1440"
     inkscape:window-height="855"
     inkscape:window-x="0"
     inkscape:window-y="1"
     inkscape:window-maximized="1"
     units="px"
     inkscape:snap-object-midpoints="true"
     inkscape:pagecheckerboard="false"
     borderlayer="false"
     showborder="true"
     inkscape:showpageshadow="true">
    <inkscape:grid
       type="xygrid"
       id="grid8075"
       spacingx="5.2916668"
       spacingy="5.2916668" />
  </sodipodi:namedview>
  <metadata
     id="metadata7524">
    <rdf:RDF>
      <cc:Work
         rdf:about="">
        <dc:format>image/svg+xml</dc:format>
        <dc:type
           rdf:resource="http://purl.org/dc/dcmitype/StillImage" />
        <dc:title></dc:title>
      </cc:Work>
    </rdf:RDF>
  </metadata>
  <g
     inkscape:label="Layer 1"
     inkscape:groupmode="layer"
     id="layer1"
     transform="translate(0,-222.91665)">
    <g
       id="g8195"
       transform="translate(0,4.7625003)">
      <circle
         transform="rotate(-39.846846)"
         r="18.204096"
         cy="225.09068"
         cx="-112.2154"
         id="path4504"
         style="opacity:1;fill:#150b00;fill-opacity:1;stroke:#150b00;stroke-width:0.41531324;stroke-miterlimit:4;stroke-dasharray:none;stroke-dashoffset:0;stroke-opacity:1" />
      <path
         inkscape:connector-curvature="0"
         id="path4649"
         d="m 58.770637,235.69675 c -4.775979,3.45986 -8.688509,6.29021 -8.694511,6.28967 -0.006,-6.2e-4 -0.825767,-2.51524 -1.821698,-5.58821 l -1.81078,-5.58723 0.457798,-0.37687 c 0.897418,-0.73877 2.129636,-1.50865 3.340291,-2.087 4.034148,-1.92715 8.669331,-2.29899 12.942387,-1.03826 1.344757,0.39676 2.810853,1.02355 3.93537,1.68245 0.195214,0.11439 0.38708,0.22587 0.426369,0.24775 0.07032,0.0392 0.07016,0.0408 -0.01009,0.10342 -0.04484,0.035 -3.989158,2.89443 -8.765133,6.35428 z"
         style="opacity:1;fill:#f8e7b9;fill-opacity:1;stroke:#150b00;stroke-width:0.16849029;stroke-miterlimit:4;stroke-dasharray:none;stroke-dashoffset:0;stroke-opacity:1" />
      <path
         inkscape:connector-curvature="0"
         id="path4651"
         d="m 66.945401,242.65029 c -4.802534,-3.49782 -8.734613,-6.369 -8.737952,-6.38041 -0.0053,-0.0182 1.613485,-1.19731 7.953421,-5.7933 0.848437,-0.61506 1.553371,-1.11659 1.56651,-1.11453 0.03914,0.006 0.579108,0.36716 0.966074,0.64589 0.732505,0.52761 1.476329,1.15929 2.210567,1.87729 0.275683,0.26958 0.505734,0.52936 1.095107,1.23666 0.805813,0.96703 1.072062,1.33618 1.619231,2.24502 2.256075,3.74727 3.087057,8.25937 2.309948,12.54263 -0.09081,0.50053 -0.213746,1.0693 -0.234945,1.08699 -0.0089,0.007 -3.945434,-2.84842 -8.747969,-6.34624 z"
         style="opacity:1;fill:#b3ceea;fill-opacity:1;stroke:#150b00;stroke-width:0.16849029;stroke-miterlimit:4;stroke-dasharray:none;stroke-dashoffset:0;stroke-opacity:1" />
      <path
         inkscape:connector-curvature="0"
         id="path4653"
         d="m 69.145415,259.08579 c -2.646781,2.04623 -5.768401,3.29786 -9.147775,3.66784 -0.504948,0.0553 -0.570373,0.0558 -0.55625,0.005 0.05364,-0.19397 6.697668,-20.53811 6.706774,-20.53628 0.0062,0.001 2.149595,1.55875 4.763182,3.46114 4.405227,3.20648 4.751067,3.46319 4.739427,3.51799 -0.0069,0.0325 -0.07936,0.29088 -0.161019,0.57416 -0.830092,2.8797 -2.363304,5.49881 -4.492648,7.67458 -0.256795,0.26239 -1.282255,1.2083 -1.388746,1.281 -0.01898,0.013 -0.227327,0.17262 -0.462943,0.35479 z"
         style="opacity:1;fill:#a69f9d;fill-opacity:1;stroke:#150b00;stroke-width:0.16849029;stroke-miterlimit:4;stroke-dasharray:none;stroke-dashoffset:0;stroke-opacity:1" />
      <path
         inkscape:connector-curvature="0"
         id="path4655"
         d="m 58.98835,262.83611 c -2.445447,0.12533 -4.92052,-0.25779 -7.280224,-1.12691 -0.47283,-0.17415 -1.510435,-0.6336 -1.970657,-0.8726 -2.166467,-1.12507 -4.009322,-2.60644 -5.57625,-4.48244 -0.864355,-1.03485 -1.455187,-1.90178 -2.05699,-3.01823 -0.377269,-0.69991 -0.832052,-1.69113 -0.791451,-1.72502 0.02443,-0.0204 21.594043,-4.1e-4 21.611092,0.02 0.0064,0.008 -0.784008,2.45659 -1.756593,5.44189 -0.972584,2.9853 -1.791295,5.49975 -1.819357,5.58768 l -0.05103,0.15986 z"
         style="opacity:1;fill:#eb9f82;fill-opacity:1;stroke:#150b00;stroke-width:0.16849029;stroke-miterlimit:4;stroke-dasharray:none;stroke-dashoffset:0;stroke-opacity:1" />
      <path
         inkscape:connector-curvature="0"
         id="path4657"
         d="m 47.108064,251.48165 -5.882981,-0.006 -0.130017,-0.34759 c -2.502452,-6.6901 -0.905819,-14.15037 4.111535,-19.21114 0.370803,-0.37401 1.114883,-1.04613 1.133473,-1.02385 0.0209,0.025 6.658697,20.54171 6.6547,20.5689 -0.0021,0.0139 -2.651071,0.0227 -5.88671,0.0195 z"
         style="opacity:1;fill:#c4d3ca;fill-opacity:1;stroke:#150b00;stroke-width:0.16849029;stroke-miterlimit:4;stroke-dasharray:none;stroke-dashoffset:0;stroke-opacity:1" />
      <path
         inkscape:connector-curvature="0"
         id="path824"
         d="m 58.074611,251.48562 c -2.686367,-8.3e-4 -4.899373,-0.0198 -4.917792,-0.0422 -0.01842,-0.0224 -0.709644,-2.13246 -1.536057,-4.68907 l -1.50257,-4.64838 3.984304,-2.87789 c 2.191367,-1.58284 3.991508,-2.87675 4.000313,-2.87535 0.04263,0.007 7.92166,5.77302 7.91679,5.79388 -0.019,0.0815 -3.039164,9.32663 -3.048803,9.33286 -0.0065,0.004 -2.20982,0.007 -4.896185,0.006 z"
         style="opacity:1;fill:#150b00;fill-opacity:1;stroke:#150b00;stroke-width:0.08999763;stroke-miterlimit:4;stroke-dasharray:none;stroke-dashoffset:0;stroke-opacity:1" />
      <path
         transform="matrix(-0.06522271,0.19714784,-0.19714784,-0.06522271,104.1231,229.17746)"
         inkscape:transform-center-y="1.3464287"
         inkscape:transform-center-x="-0.24641115"
         d="m 94.560783,261.69783 46.293707,-33.96328 -85.405669,-61.49767 46.606539,33.5327 32.09596,-100.229441 -17.48928,54.687631 105.24206,-0.44753 -57.41551,0.26611 32.94721,99.95285 -17.99545,-54.52316 z"
         inkscape:randomized="0"
         inkscape:rounded="0"
         inkscape:flatsided="false"
         sodipodi:arg2="1.5670031"
         sodipodi:arg1="2.1244193"
         sodipodi:r2="40.683987"
         sodipodi:r1="87.755417"
         sodipodi:cy="187.05086"
         sodipodi:cx="140.70016"
         sodipodi:sides="5"
         id="path4528"
         style="opacity:1;fill:none;fill-opacity:1;stroke:#150b00;stroke-width:2;stroke-miterlimit:4;stroke-dasharray:none;stroke-dashoffset:0;stroke-opacity:1"
         sodipodi:type="star" />
    </g>
    <flowRoot
       xml:space="preserve"
       id="flowRoot8161"
       style="font-style:normal;font-variant:normal;font-weight:normal;font-stretch:normal;font-size:40.00062943px;line-height:1.25;font-family:Optima;-inkscape-font-specification:'Optima, Normal';font-variant-ligatures:normal;font-variant-caps:normal;font-variant-numeric:normal;font-feature-settings:normal;text-align:center;letter-spacing:0px;word-spacing:0px;writing-mode:lr-tb;text-anchor:middle;fill:#000000;fill-opacity:1;stroke:none"
       transform="matrix(0.33992088,0,0,0.33992088,-15.896725,212.13656)"><flowRegion
         id="flowRegion8163"
         style="font-style:normal;font-variant:normal;font-weight:normal;font-stretch:normal;font-size:40.00062943px;font-family:Optima;-inkscape-font-specification:'Optima, Normal';font-variant-ligatures:normal;font-variant-caps:normal;font-variant-numeric:normal;font-feature-settings:normal;text-align:center;writing-mode:lr-tb;text-anchor:middle"><rect
           id="rect8165"
           width="440"
           height="100"
           x="0"
           y="180"
           style="font-style:normal;font-variant:normal;font-weight:normal;font-stretch:normal;font-size:40.00062943px;font-family:Optima;-inkscape-font-specification:'Optima, Normal';font-variant-ligatures:normal;font-variant-caps:normal;font-variant-numeric:normal;font-feature-settings:normal;text-align:center;writing-mode:lr-tb;text-anchor:middle" /></flowRegion><flowPara
         id="flowPara8167">Magic Card Zoom</flowPara></flowRoot>  </g>
</svg>
