<?xml version="1.0" encoding="UTF-8" standalone="no"?>
<!-- Created with Inkscape (http://www.inkscape.org/) -->

<svg
   xmlns:dc="http://purl.org/dc/elements/1.1/"
   xmlns:cc="http://creativecommons.org/ns#"
   xmlns:rdf="http://www.w3.org/1999/02/22-rdf-syntax-ns#"
   xmlns:svg="http://www.w3.org/2000/svg"
   xmlns="http://www.w3.org/2000/svg"
   xmlns:sodipodi="http://sodipodi.sourceforge.net/DTD/sodipodi-0.dtd"
   xmlns:inkscape="http://www.inkscape.org/namespaces/inkscape"
   width="210mm"
   height="297mm"
   viewBox="0 0 210 297"
   version="1.1"
   id="svg8"
   inkscape:version="0.92.2 5c3e80d, 2017-08-06"
   sodipodi:docname="zoom_fill2.svg"
   inkscape:export-filename="/Users/ahenry/src/magic-card-zoom/src/img/zoom_fill2_bis.png"
   inkscape:export-xdpi="18.5"
   inkscape:export-ydpi="18.5">
  <defs
     id="defs2" />
  <sodipodi:namedview
     id="base"
     pagecolor="#ffffff"
     bordercolor="#666666"
     borderopacity="1.0"
     inkscape:pageopacity="0.0"
     inkscape:pageshadow="2"
     inkscape:zoom="0.7"
     inkscape:cx="122.49995"
     inkscape:cy="759.33967"
     inkscape:document-units="mm"
     inkscape:current-layer="layer1"
     showgrid="false"
     inkscape:window-width="1440"
     inkscape:window-height="855"
     inkscape:window-x="0"
     inkscape:window-y="1"
     inkscape:window-maximized="1" />
  <metadata
     id="metadata5">
    <rdf:RDF>
      <cc:Work
         rdf:about="">
        <dc:format>image/svg+xml</dc:format>
        <dc:type
           rdf:resource="http://purl.org/dc/dcmitype/StillImage" />
        <dc:title />
      </cc:Work>
    </rdf:RDF>
  </metadata>
  <g
     inkscape:label="Layer 1"
     inkscape:groupmode="layer"
     id="layer1">
    <circle
       style="opacity:1;fill:#150b00;fill-opacity:1;stroke:#150b00;stroke-width:2;stroke-miterlimit:4;stroke-dasharray:none;stroke-dashoffset:0;stroke-opacity:1"
       id="path4504"
       cx="7.8752718"
       cy="158.00963"
       r="87.664406"
       transform="rotate(-39.846846)" />
    <path
       style="opacity:1;fill:#f8e7b9;fill-opacity:1;stroke:#150b00;stroke-width:0.81138891;stroke-miterlimit:4;stroke-dasharray:none;stroke-dashoffset:0;stroke-opacity:1"
       d="M 110.66501,72.832901 C 87.665607,89.494329 68.82426,103.12428 68.795357,103.12167 c -0.02892,-0.003 -3.976596,-12.112479 -8.77264,-26.910834 l -8.720072,-26.9061 2.204592,-1.814867 c 4.321645,-3.557649 10.255567,-7.265123 16.085644,-10.050213 19.427018,-9.280485 41.748399,-11.071145 62.325909,-4.99991 6.47586,1.910655 13.53606,4.929034 18.95133,8.102104 0.94008,0.550829 1.86404,1.08771 2.05325,1.193062 0.33864,0.188552 0.33788,0.196345 -0.0486,0.498014 -0.21594,0.168566 -19.21035,13.938541 -42.20974,30.599971 z"
       id="path4649"
       inkscape:connector-curvature="0" />
    <path
       style="opacity:1;fill:#b3ceea;fill-opacity:1;stroke:#150b00;stroke-width:0.81138891;stroke-miterlimit:4;stroke-dasharray:none;stroke-dashoffset:0;stroke-opacity:1"
       d="M 150.03175,106.31865 C 126.90447,89.474405 107.96898,75.647794 107.9529,75.59285 c -0.0256,-0.08748 7.76997,-5.765781 38.30084,-27.89843 4.08576,-2.961918 7.48048,-5.377114 7.54374,-5.367204 0.18848,0.02963 2.78878,1.768123 4.65227,3.110379 3.52748,2.540806 7.10947,5.582744 10.64531,9.040337 1.32758,1.298208 2.43542,2.549232 5.27363,5.955314 3.88051,4.656907 5.16267,6.434602 7.79764,10.811226 10.86445,18.045521 14.86616,39.774158 11.12388,60.400838 -0.43732,2.41037 -1.02932,5.14936 -1.13141,5.23455 -0.043,0.0349 -18.9998,-13.71698 -42.12709,-30.56124 z"
       id="path4651"
       inkscape:connector-curvature="0" />
    <path
       style="opacity:1;fill:#a69f9d;fill-opacity:1;stroke:#150b00;stroke-width:0.81138891;stroke-miterlimit:4;stroke-dasharray:none;stroke-dashoffset:0;stroke-opacity:1"
       d="m 160.62624,185.46611 c -12.74595,9.85391 -27.77856,15.8813 -44.05242,17.66301 -2.43165,0.26623 -2.74671,0.26893 -2.6787,0.023 0.25831,-0.93405 32.25358,-98.90417 32.29743,-98.89536 0.0297,0.006 10.35167,7.50639 22.93777,16.66761 21.214,15.44128 22.87944,16.67751 22.82339,16.94139 -0.0332,0.15655 -0.38217,1.40079 -0.77541,2.76496 -3.99743,13.86759 -11.38083,26.48028 -21.63498,36.95802 -1.23664,1.26358 -6.17489,5.81872 -6.68771,6.16885 -0.0914,0.0626 -1.09473,0.83124 -2.22936,1.70852 z"
       id="path4653"
       inkscape:connector-curvature="0" />
    <path
       style="opacity:1;fill:#eb9f82;fill-opacity:1;stroke:#150b00;stroke-width:0.81138891;stroke-miterlimit:4;stroke-dasharray:none;stroke-dashoffset:0;stroke-opacity:1"
       d="m 111.71344,203.5263 c -11.776394,0.60356 -23.695461,-1.24139 -35.058952,-5.42678 -2.27698,-0.83865 -7.273712,-3.05117 -9.489977,-4.20211 -10.432933,-5.41794 -19.307466,-12.55169 -26.853227,-21.58584 -4.162427,-4.98346 -7.007663,-9.15829 -9.905726,-14.53474 -1.816797,-3.3705 -4.006865,-8.14388 -3.811346,-8.30705 0.117654,-0.0982 103.989188,-0.002 104.071288,0.0961 0.0309,0.0374 -3.77551,11.83005 -8.45912,26.2062 -4.68362,14.37612 -8.62624,26.48485 -8.76138,26.90826 l -0.24572,0.76985 z"
       id="path4655"
       inkscape:connector-curvature="0" />
    <path
       style="opacity:1;fill:#c4d3ca;fill-opacity:1;stroke:#150b00;stroke-width:0.81138891;stroke-miterlimit:4;stroke-dasharray:none;stroke-dashoffset:0;stroke-opacity:1"
       d="M 54.502235,148.84731 26.171903,148.8192 25.54579,147.14534 C 13.494872,114.9282 21.183689,79.002222 45.345469,54.631385 c 1.785656,-1.801104 5.368877,-5.037796 5.458402,-4.93052 0.10065,0.120552 32.0659,98.921515 32.046653,99.052455 -0.0099,0.0671 -12.766609,0.10946 -28.348289,0.094 z"
       id="path4657"
       inkscape:connector-curvature="0" />
    <path
       style="opacity:1;fill:#150b00;fill-opacity:1;stroke:#150b00;stroke-width:0.4333964;stroke-miterlimit:4;stroke-dasharray:none;stroke-dashoffset:0;stroke-opacity:1"
       d="m 107.3132,148.86643 c -12.936582,-0.004 -23.593628,-0.0955 -23.682324,-0.20326 -0.08869,-0.10778 -3.417393,-10.26917 -7.397104,-22.58089 l -7.23584,-22.38495 19.186983,-13.858887 c 10.55284,-7.62239 19.221675,-13.853384 19.264075,-13.846645 0.20528,0.03262 38.14788,27.800762 38.12444,27.901222 -0.0915,0.39228 -14.63554,44.91373 -14.68195,44.94374 -0.0315,0.0203 -10.6417,0.0337 -23.57828,0.0297 z"
       id="path824"
       inkscape:connector-curvature="0" />
    <path
       sodipodi:type="star"
       style="opacity:1;fill:none;fill-opacity:1;stroke:#150b00;stroke-width:2;stroke-miterlimit:4;stroke-dasharray:none;stroke-dashoffset:0;stroke-opacity:1"
       id="path4528"
       sodipodi:sides="5"
       sodipodi:cx="140.70016"
       sodipodi:cy="187.05086"
       sodipodi:r1="87.755417"
       sodipodi:r2="40.683987"
       sodipodi:arg1="2.1244193"
       sodipodi:arg2="1.5670031"
       inkscape:flatsided="false"
       inkscape:rounded="0"
       inkscape:randomized="0"
       d="m 94.560783,261.69783 46.293707,-33.96328 -85.405669,-61.49767 46.606539,33.5327 32.09596,-100.229441 -17.48928,54.687631 105.24206,-0.44753 -57.41551,0.26611 32.94721,99.95285 -17.99545,-54.52316 z"
       inkscape:transform-center-x="-1.1866521"
       inkscape:transform-center-y="6.4839225"
       transform="rotate(108.30584,149.56413,139.58985)" />
  </g>
</svg>
